<svg width="77" height="70" viewBox="0 0 77 70" fill="none" xmlns="http://www.w3.org/2000/svg">
    <path d="M16.0417 70C20.2947 69.9949 24.3719 68.3172 27.3793 65.3348C30.3865 62.3522 32.0783 58.3087 32.0834 54.0909V15.9091C32.0834 13.3775 33.0974 10.9496 34.9024 9.15944C36.7075 7.36931 39.1556 6.36364 41.7083 6.36364H60.9583C63.5111 6.36364 65.9592 7.36931 67.7643 9.15944C69.5693 10.9496 70.5834 13.3775 70.5834 15.9091V41.4464C67.823 39.3406 64.441 38.1935 60.9583 38.1818C57.7856 38.1818 54.6841 39.1148 52.0461 40.863C49.408 42.611 47.3519 45.0958 46.1378 48.0028C44.9236 50.9098 44.606 54.1086 45.2249 57.1946C45.8439 60.2807 47.3718 63.1154 49.6152 65.3403C51.8586 67.5653 54.717 69.0804 57.8288 69.6943C60.9406 70.3082 64.166 69.9931 67.0973 68.789C70.0285 67.5848 72.5338 65.5457 74.2966 62.9295C76.0592 60.3132 77 57.2374 77 54.0909V15.9091C76.995 11.6913 75.3032 7.64768 72.2959 4.66525C69.2886 1.68281 65.2113 0.00505227 60.9583 0H41.7083C37.4553 0.00505227 33.3781 1.68281 30.3708 4.66525C27.3635 7.64768 25.6717 11.6913 25.6666 15.9091V41.4464C22.9062 39.3406 19.5242 38.1935 16.0417 38.1818C11.7872 38.1818 7.7069 39.858 4.6985 42.8415C1.6901 45.825 0 49.8715 0 54.0909C0 58.3102 1.6901 62.3567 4.6985 65.3403C7.7069 68.3239 11.7872 70 16.0417 70Z" fill="url(#paint0_linear_9_4)"/>
    <defs>
    <linearGradient id="paint0_linear_9_4" x1="38.5" y1="0" x2="38.5" y2="70" gradientUnits="userSpaceOnUse">
    <stop stop-color="#FF80A8"/>
    <stop offset="1" stop-color="#FF78F2"/>
    </linearGradient>
    </defs>
    </svg>
    